<?xml version="1.0" standalone="no"?><svg xmlns="http://www.w3.org/2000/svg" viewBox="0 0 1440 320"><path fill="#fdf8f5" fill-opacity="1" d="M0,96L34.3,117.3C68.6,139,137,181,206,192C274.3,203,343,181,411,160C480,139,549,117,617,133.3C685.7,149,754,203,823,208C891.4,213,960,171,1029,181.3C1097.1,192,1166,256,1234,288C1302.9,320,1371,320,1406,320L1440,320L1440,320L1405.7,320C1371.4,320,1303,320,1234,320C1165.7,320,1097,320,1029,320C960,320,891,320,823,320C754.3,320,686,320,617,320C548.6,320,480,320,411,320C342.9,320,274,320,206,320C137.1,320,69,320,34,320L0,320Z"></path></svg>