<?xml version="1.0" standalone="no"?><svg xmlns="http://www.w3.org/2000/svg" viewBox="0 0 1440 320"><path fill="#ede2dc" fill-opacity="1" d="M0,224L30,234.7C60,245,120,267,180,250.7C240,235,300,181,360,138.7C420,96,480,64,540,74.7C600,85,660,139,720,165.3C780,192,840,192,900,176C960,160,1020,128,1080,101.3C1140,75,1200,53,1260,53.3C1320,53,1380,75,1410,85.3L1440,96L1440,320L1410,320C1380,320,1320,320,1260,320C1200,320,1140,320,1080,320C1020,320,960,320,900,320C840,320,780,320,720,320C660,320,600,320,540,320C480,320,420,320,360,320C300,320,240,320,180,320C120,320,60,320,30,320L0,320Z"></path></svg>